:SAMPLES-PER-SECOND 30
:FULLY-SPECIFIED
:DEGREES
101
root  -1.74024 33.1812 15.4036 -25.788 -76.7043 35.2546
RightUpLeg  -8.01129 -28.598 -46.7875
RightLeg  -0.239611 -13.2994 -3.84896
RightFoot  43.6135 -5.90071 11.9486
RightToes  -6.40286e-010 0 -3.6325e-017
Spine  24.5181 11.6347 22.5837
Spine1  -29.1116 13.4567 -21.6179
HEad  -34.2989 -23.2833 -3.86309
LeftShoulder1  0.522601 13.669 15.4853
LeftArm  -23.8862 9.86784 -0.0592627
LeftForeArm  -21.178 5.97229 -3.44889
LeftHand  0.0101416 5.39424 34.4539
RightShoulder  -0.0678796 -5.28021 -5.18622
RightArm  -33.6259 -8.2472 4.89491
RightForeArm  -34.1854 6.47736 1.70816
RightHand  -0.371817 -1.82101 -11.9214
LeftUpLeg  -34.6665 18.1514 14.2803
LeftLeg  51.9422 -6.52919 -8.41021
LeftFoot  -17.0189 -1.11223 -24.1094
LeftToes  -2.09187e-010 -4.93792e-011 -8.21189e-011
102
root  -1.74546 32.6894 15.5913 -28.4711 -78.6909 38.1525
RightUpLeg  -10.7548 -28.7903 -46.1461
RightLeg  1.89175 -10.6722 -4.60114
RightFoot  41.8857 -7.70478 15.9379
RightToes  -6.40286e-010 0 -3.6325e-017
Spine  24.3966 11.2131 20.0336
Spine1  -29.6367 12.8105 -18.2597
HEad  -34.2842 -21.3035 -5.50422
LeftShoulder1  0.77523 14.2159 17.8481
LeftArm  -25.7417 5.2427 1.27194
LeftForeArm  -18.709 6.0458 -3.50606
LeftHand  0.0241992 5.43628 35.2343
RightShoulder  -0.0784271 -4.94464 -3.33051
RightArm  -34.5547 -11.9837 9.22578
RightForeArm  -34.3738 8.0368 1.46724
RightHand  -0.393624 -1.85414 -12.7532
LeftUpLeg  -35.2161 15.7678 15.3143
LeftLeg  54.717 -3.94841 -5.48603
LeftFoot  -20.268 -1.84719 -24.8496
LeftToes  -2.09187e-010 -4.93792e-011 -8.21189e-011
103
root  -1.75698 32.2688 15.5291 -33.8633 -81.2254 43.689
RightUpLeg  -14.1762 -27.2973 -45.3868
RightLeg  5.05749 -8.80682 -4.77931
RightFoot  39.1896 -9.62286 20.8463
RightToes  -6.40286e-010 0 -3.6325e-017
Spine  24.3585 10.6798 16.8983
Spine1  -30.2396 12.072 -14.0185
HEad  -34.7983 -18.6471 -7.042
LeftShoulder1  1.05589 14.8076 20.2129
LeftArm  -27.7177 1.52036 2.36433
LeftForeArm  -17.2947 6.06082 -3.38505
LeftHand  0.142712 5.79696 36.3078
RightShoulder  -0.0708409 -4.45419 -1.07931
RightArm  -34.9039 -15.2913 13.2764
RightForeArm  -34.1688 8.99443 1.45171
RightHand  -0.407951 -1.79564 -13.0173
LeftUpLeg  -35.2355 14.7823 17.0295
LeftLeg  56.9822 -2.28784 -3.26139
LeftFoot  -22.023 -2.3365 -25.9864
LeftToes  -2.09187e-010 -4.93792e-011 -8.21189e-011
104
root  -1.7715 31.9596 15.2296 -44.8461 -83.9899 54.803
RightUpLeg  -17.675 -23.9597 -44.969
RightLeg  8.60305 -7.02427 -3.85959
RightFoot  35.8114 -11.0972 25.7043
RightToes  -6.40286e-010 0 -3.6325e-017
Spine  24.3792 9.91972 13.6261
Spine1  -31.0322 11.1755 -9.33954
HEad  -35.12 -15.3126 -8.65831
LeftShoulder1  1.32031 15.3318 22.2522
LeftArm  -29.7044 -1.59612 3.56655
LeftForeArm  -17.0651 6.02725 -3.15572
LeftHand  0.309033 6.27261 37.5987
RightShoulder  -0.0549703 -4.0538 1.58752
RightArm  -34.5565 -18.1731 16.9975
RightForeArm  -34.0559 9.38358 1.6531
RightHand  -0.385407 -1.941 -12.7864
LeftUpLeg  -34.6047 15.4341 19.2618
LeftLeg  58.3506 -1.42352 -1.93731
LeftFoot  -22.5918 -2.63566 -27.6297
LeftToes  -2.09187e-010 -4.93792e-011 -8.21189e-011
105
root  -1.80234 31.8014 14.7061 -68.2025 -86.1428 78.4638
RightUpLeg  -20.8213 -20.8845 -44.5398
RightLeg  11.3889 -3.78398 -2.19314
RightFoot  32.2635 -11.9655 29.9504
RightToes  -6.40286e-010 0 -3.6325e-017
Spine  23.997 8.84973 10.0946
Spine1  -31.5352 10.0831 -3.82208
HEad  -35.1883 -11.3974 -10.7867
LeftShoulder1  1.52157 15.6465 23.7758
LeftArm  -31.4024 -3.9161 4.52851
LeftForeArm  -16.9624 5.99049 -2.92599
LeftHand  0.426518 6.57024 38.9838
RightShoulder  -0.0487659 -3.88638 4.3279
RightArm  -34.2027 -20.6583 20.373
RightForeArm  -34.2535 9.46068 1.85051
RightHand  -0.342271 -2.42201 -13.125
LeftUpLeg  -33.3626 16.9851 21.6349
LeftLeg  58.1821 -1.03208 -1.23776
LeftFoot  -22.3981 -2.77149 -29.4065
LeftToes  -2.09187e-010 -4.93792e-011 -8.21189e-011
106
root  -1.85537 31.8023 13.9693 -108.559 -86.7743 119.508
RightUpLeg  -23.9323 -19.7006 -43.3428
RightLeg  13.2937 0.900476 -0.27949
RightFoot  28.8219 -12.41 33.7024
RightToes  -6.40286e-010 0 -3.6325e-017
Spine  22.8885 7.49087 6.06683
Spine1  -31.2016 8.7983 2.87917
HEad  -35.6853 -7.01591 -13.5637
LeftShoulder1  1.63121 15.7972 24.594
LeftArm  -32.3182 -5.04738 5.10842
LeftForeArm  -15.8326 5.99768 -2.80951
LeftHand  0.453263 6.59314 40.4116
RightShoulder  -0.0638714 -3.93459 6.55764
RightArm  -34.2978 -22.3763 23.5984
RightForeArm  -34.5372 8.89866 1.80965
RightHand  -0.308977 -2.96261 -14.3576
LeftUpLeg  -31.6207 18.756 23.9764
LeftLeg  56.2709 -0.775369 -0.720051
LeftFoot  -21.4112 -2.66632 -30.992
LeftToes  -2.09187e-010 -4.93792e-011 -8.21189e-011
107
root  -1.90971 31.9149 13.0221 -145.977 -85.3703 158.079
RightUpLeg  -27.9015 -20.5095 -40.6163
RightLeg  15.3131 6.33237 1.78689
RightFoot  25.3851 -12.4764 37.015
RightToes  -6.40286e-010 0 -3.6325e-017
Spine  21.4041 5.93654 1.93162
Spine1  -30.3908 7.39378 10.1321
HEad  -37.0613 -2.29555 -16.6614
LeftShoulder1  1.65783 15.9021 24.7059
LeftArm  -32.2314 -5.02425 5.57568
LeftForeArm  -13.5466 6.061 -2.87388
LeftHand  0.458398 6.55672 41.8164
RightShoulder  -0.105405 -4.16495 7.97335
RightArm  -34.3772 -23.1425 26.6739
RightForeArm  -34.6209 7.152 1.58146
RightHand  -0.297309 -3.21445 -15.383
LeftUpLeg  -29.3191 20.7323 26.5273
LeftLeg  52.8888 -0.445694 -0.142175
LeftFoot  -19.5756 -2.31022 -32.8594
LeftToes  -2.09187e-010 -4.93792e-011 -8.21189e-011
